<svg xmlns="http://www.w3.org/2000/svg" width="38" height="50" viewBox="0 0 38 50">
  <path fill="#B3C4C9" d="M30.202,13 L37.832,1.555 C38.036,1.248 38.056,0.854 37.882,0.529 C37.708,0.204 37.369,0 37,0 L1,0 C0.448,0 0,0.448 0,1 L0,25 L0,49 C0,49.553 0.448,50 1,50 C1.552,50 2,49.553 2,49 L2,26 L37,26 C37.369,26 37.708,25.797 37.882,25.472 C38.056,25.147 38.036,24.752 37.832,24.446 L30.202,13 Z M21.895,7.447 L15.895,19.447 C15.751,19.735 15.478,19.935 15.161,19.987 C15.107,19.996 15.053,20 15,20 C14.737,20 14.482,19.896 14.293,19.707 L10.293,15.707 C9.902,15.316 9.902,14.684 10.293,14.293 C10.684,13.902 11.316,13.902 11.707,14.293 L14.726,17.312 L20.105,6.553 C20.353,6.059 20.953,5.858 21.447,6.106 C21.941,6.353 22.142,6.953 21.895,7.447 Z"/>
</svg>
