<svg xmlns="http://www.w3.org/2000/svg" width="74" height="42" viewBox="0 0 74 42">
  <g fill="#A5C0C0" transform="translate(-1)">
    <path d="M27.0938967,36.199271 L27.0938967,30.8894289 L28.9546166,30.8894289 L28.9546166,0 L25.2331768,0 L17.7449139,0 L3.63067293,0 C1.63380282,0 0,1.66221142 0,3.69380316 L0,34.3061968 C0,36.3377886 1.63380282,38 3.63067293,38 L29,38 L29,36.1530984 L27.0938967,36.1530984 L27.0938967,36.199271 Z M23.372457,1.84690158 L23.372457,9.88092345 L21.4663537,8.86512758 L19.5602504,9.88092345 L19.5602504,1.84690158 L23.372457,1.84690158 Z M21.4663537,10.9890644 L25.1877934,12.9283111 L25.1877934,1.84690158 L27.0938967,1.84690158 L27.0938967,28.9963548 L8.35054773,28.9963548 L8.35054773,1.84690158 L17.7449139,1.84690158 L17.7449139,12.8821385 L21.4663537,10.9890644 Z M1.81533646,3.69380316 C1.81533646,2.67800729 2.63223787,1.84690158 3.63067293,1.84690158 L6.58059468,1.84690158 L6.58059468,28.9963548 L3.63067293,28.9963548 C2.94992175,28.9963548 2.3599374,29.181045 1.81533646,29.5042527 L1.81533646,3.69380316 Z M1.81533646,34.3523694 L1.81533646,32.7363305 C1.81533646,31.7205346 2.63223787,30.8894289 3.63067293,30.8894289 L25.2785603,30.8894289 L25.2785603,36.199271 L3.63067293,36.199271 C2.63223787,36.199271 1.81533646,35.3681652 1.81533646,34.3523694 Z" transform="rotate(-7 32.35 -4.525)"/>
    <path d="M-7.14285714e-07,0.178106557 L-7.14285714e-07,0.608434417 L-7.14285714e-07,19.5428818 L-7.14285714e-07,19.9732096 L0.416665944,19.9732096 L34.5833333,19.9732096 L35,19.9732096 L35,19.5428818 L35,0.608434417 L35,0.178106557 L34.5833333,0.178106557 L0.416665944,0.178106557 L-7.14285714e-07,0.178106557 Z M0.833332601,1.03876228 L34.1666667,1.03876228 L34.1666667,19.1125539 L0.833332601,19.1125539 L0.833332601,1.03876228 Z M14.5182279,4.48138515 C14.3311279,4.51641384 14.1804988,4.70787101 14.1796863,4.91171301 L14.1796863,15.2396032 C14.1771863,15.2662835 14.1771863,15.2934372 14.1796863,15.3202896 C14.2343821,15.5926011 14.5699071,15.7474331 14.7916654,15.6026708 L23.111979,10.4387365 C23.3422957,10.2809438 23.3422957,9.85690307 23.111979,9.69911045 L14.7916654,4.53517614 C14.7100029,4.48402737 14.6114821,4.4646497 14.5182279,4.48138515 Z M14.9869779,5.66478677 L22.1093749,10.0756473 L14.9869779,14.4730601 L14.9869779,5.66478677 Z M7.49999892,22.5551768 C6.72366977,22.5551768 6.08371561,23.104146 5.89843645,23.8461604 L2.08333237,23.8461604 C1.8532157,23.8461604 1.66666571,24.0388181 1.66666571,24.2764882 C1.66666571,24.5141583 1.8532157,24.7068161 2.08333237,24.7068161 L5.89843645,24.7068161 C6.08371561,25.4488304 6.72366977,25.9977997 7.49999892,25.9977997 C8.27632807,25.9977997 8.91628222,25.4488304 9.10156138,24.7068161 L32.9166663,24.7068161 C33.146783,24.7068161 33.333333,24.5141583 33.333333,24.2764882 C33.333333,24.0388181 33.146783,23.8461604 32.9166663,23.8461604 L9.10156138,23.8461604 C8.91628222,23.104146 8.27632807,22.5551768 7.49999892,22.5551768 Z" transform="rotate(9 20.034 254.552)"/>
  </g>
</svg>
