<svg xmlns="http://www.w3.org/2000/svg" width="35" height="42" viewBox="0 0 35 42">
  <path fill="#A5C0C0" d="M30.0938967,38.699271 L30.0938967,33.3894289 L31.9546166,33.3894289 L31.9546166,2.5 L28.2331768,2.5 L20.7449139,2.5 L6.63067293,2.5 C4.63380282,2.5 3,4.16221142 3,6.19380316 L3,36.8061968 C3,38.8377886 4.63380282,40.5 6.63067293,40.5 L32,40.5 L32,38.6530984 L30.0938967,38.6530984 L30.0938967,38.699271 Z M26.372457,4.34690158 L26.372457,12.3809235 L24.4663537,11.3651276 L22.5602504,12.3809235 L22.5602504,4.34690158 L26.372457,4.34690158 Z M24.4663537,13.4890644 L28.1877934,15.4283111 L28.1877934,4.34690158 L30.0938967,4.34690158 L30.0938967,31.4963548 L11.3505477,31.4963548 L11.3505477,4.34690158 L20.7449139,4.34690158 L20.7449139,15.3821385 L24.4663537,13.4890644 Z M4.81533646,6.19380316 C4.81533646,5.17800729 5.63223787,4.34690158 6.63067293,4.34690158 L9.58059468,4.34690158 L9.58059468,31.4963548 L6.63067293,31.4963548 C5.94992175,31.4963548 5.3599374,31.681045 4.81533646,32.0042527 L4.81533646,6.19380316 Z M4.81533646,36.8523694 L4.81533646,35.2363305 C4.81533646,34.2205346 5.63223787,33.3894289 6.63067293,33.3894289 L28.2785603,33.3894289 L28.2785603,38.699271 L6.63067293,38.699271 C5.63223787,38.699271 4.81533646,37.8681652 4.81533646,36.8523694 Z" transform="rotate(-9 14.323 21.25)"/>
</svg>
