<svg xmlns="http://www.w3.org/2000/svg" width="34" height="42" viewBox="0 0 34 42">
  <path fill="#A5C0C0" d="M27.0938967,36.199271 L27.0938967,30.8894289 L28.9546166,30.8894289 L28.9546166,0 L25.2331768,0 L17.7449139,0 L3.63067293,0 C1.63380282,0 0,1.66221142 0,3.69380316 L0,34.3061968 C0,36.3377886 1.63380282,38 3.63067293,38 L29,38 L29,36.1530984 L27.0938967,36.1530984 L27.0938967,36.199271 Z M23.372457,1.84690158 L23.372457,9.88092345 L21.4663537,8.86512758 L19.5602504,9.88092345 L19.5602504,1.84690158 L23.372457,1.84690158 Z M21.4663537,10.9890644 L25.1877934,12.9283111 L25.1877934,1.84690158 L27.0938967,1.84690158 L27.0938967,28.9963548 L8.35054773,28.9963548 L8.35054773,1.84690158 L17.7449139,1.84690158 L17.7449139,12.8821385 L21.4663537,10.9890644 Z M1.81533646,3.69380316 C1.81533646,2.67800729 2.63223787,1.84690158 3.63067293,1.84690158 L6.58059468,1.84690158 L6.58059468,28.9963548 L3.63067293,28.9963548 C2.94992175,28.9963548 2.3599374,29.181045 1.81533646,29.5042527 L1.81533646,3.69380316 Z M1.81533646,34.3523694 L1.81533646,32.7363305 C1.81533646,31.7205346 2.63223787,30.8894289 3.63067293,30.8894289 L25.2785603,30.8894289 L25.2785603,36.199271 L3.63067293,36.199271 C2.63223787,36.199271 1.81533646,35.3681652 1.81533646,34.3523694 Z" transform="rotate(-7 31.85 3.65)"/>
</svg>
